<?xml version="1.0" encoding="utf-8"?>
<!-- Generator: Adobe Illustrator 16.2.1, SVG Export Plug-In . SVG Version: 6.00 Build 0)  -->
<!DOCTYPE svg PUBLIC "-//W3C//DTD SVG 1.1//EN" "http://www.w3.org/Graphics/SVG/1.1/DTD/svg11.dtd">
<svg version="1.1" id="Layer_1" xmlns="http://www.w3.org/2000/svg" xmlns:xlink="http://www.w3.org/1999/xlink" x="0px" y="0px"
	 width="7200px" height="3600px" viewBox="0 0 7200 3600" enable-background="new 0 0 7200 3600" xml:space="preserve">
<rect x="2907.162" y="1489" fill="#9BE3DC" width="1032.413" height="655.353"/>
<rect x="2907.162" y="1865.826" fill="#594A42" width="1032.413" height="222.021"/>
<g>
	<path fill="#FFFFFF" d="M3062.424,1735.249c8.75,0,16.1,7,16.1,15.75v2.1c0,9.1,7.7,16.8,16.801,16.8c9.1,0,16.8-7.7,16.8-16.8
		v-110.252h-38.851v-31.851h70.701v142.103c0,26.951-22.05,48.651-48.65,48.651c-26.601,0-48.651-22.051-48.651-48.651v-2.1
		C3046.674,1742.249,3053.674,1735.249,3062.424,1735.249z"/>
	<path fill="#FFFFFF" d="M3279.074,1679.248c8.4,0,15.4,7,15.4,15.4v60.901c0,25.55-21,46.201-46.551,46.201
		s-46.201-20.651-46.201-46.201v-60.901c0-8.4,7-15.4,15.4-15.4c8.4,0,15.4,7,15.4,15.4v60.901c0,8.4,7,15.4,15.4,15.4
		c8.75,0,15.75-6.65,15.75-15.4v-60.901C3263.674,1686.248,3270.674,1679.248,3279.074,1679.248z"/>
	<path fill="#FFFFFF" d="M3437.971,1789.5c-8.05,6.3-21.701,12.25-36.75,12.25c-33.951,0-61.251-27.301-61.251-61.251
		s27.301-61.251,61.251-61.251c11.2,0,21.35,2.8,30.45,8.05v-115.502h30.801V1803.5L3437.971,1789.5z M3401.221,1710.048
		c-16.8,0-30.451,13.65-30.451,30.451s13.65,30.451,30.451,30.451s30.45-13.65,30.45-30.451S3418.021,1710.048,3401.221,1710.048z"
		/>
	<path fill="#FFFFFF" d="M3592.67,1703.398c-9.1,13.65-17.15,25.9-23.8,38.15c10.85,23.801,16.8,52.851,16.8,84.702
		c0,50.751-16.8,84.701-34.301,84.701s-34.301-33.95-34.301-84.701c0-31.851,5.95-60.901,16.8-84.702
		c-6.65-12.25-14.7-24.85-23.8-38.15c-2.45-3.5-2.8-6.3-2.8-8.75c0-8.4,7-15.4,15.4-15.4c4.55,0,9.8,2.45,12.95,7
		c5.601,8.05,10.851,16.1,15.75,23.45c4.9-7.35,10.15-14.7,15.75-23.45c3.15-4.55,8.4-7,12.95-7c8.4,0,15.4,7,15.4,15.4
		C3595.47,1697.098,3594.42,1700.598,3592.67,1703.398z M3551.37,1776.199c-2.1,11.2-4.2,36.75-4.2,50.051
		c0,23.45,1.75,38.5,4.2,38.5c2.8,0,4.2-15.399,4.2-38.5C3555.57,1813.3,3553.82,1787.399,3551.37,1776.199z"/>
	<path fill="#FFFFFF" d="M3644.815,1637.597c-9.101,8.75-22.4-4.55-13.65-13.65l11.55-11.2c-5.949-4.2-9.8-11.2-9.8-18.9
		c0-12.6,10.501-23.1,23.101-23.1c12.95,0,23.101,10.5,23.101,23.1c0,8.4-4.2,13.65-7.001,16.451L3644.815,1637.597z"/>
	<path fill="#FFFFFF" d="M3706.062,1795.799c-4.55,7-14.35,8.75-21.35,3.85c-7-4.9-8.4-14.35-3.851-21.35l66.501-94.852
		c4.9-7,14.7-8.75,21.351-3.85c7,4.9,8.399,14.701,3.851,21.351l-3.851,5.6c-13.65,19.95,24.15,32.551,24.15,61.601
		c0,19.25-15.751,35-35.001,35c-13.65,0-30.45-9.8-30.45-22.4c0-8.4,7-15.4,15.4-15.4c10.149,0,10.149,7,15.05,7
		c2.45,0,4.2-1.75,4.2-4.2c0-8.4-7-13.3-18.2-26.25L3706.062,1795.799z"/>
</g>
<g opacity="0.8">
	<path fill="#FFFFFF" d="M3084.823,2006.59c-13.5,0-22.499-11.1-22.499-23.549v-43.947c0-2.101,1.35-3.301,3.45-3.301
		c1.35,0,2.399,0.75,3,1.65c0.75,1.199,1.95,1.35,3,0.75c3.6-2.1,7.5-3.9,13.049-3.9c13.5,0,22.499,7.35,22.499,20.25
		c0,7.199-3.6,10.949-5.399,12.449c-3,2.399-3,4.35,0,6.899c1.8,1.5,5.399,5.399,5.399,12.45
		C3107.322,1999.24,3098.322,2006.59,3084.823,2006.59z M3083.173,1973.291c-2.1,0-3.3-1.199-3.3-2.85c0-1.649,1.2-2.85,3.3-2.85
		c6.75,0,17.1-2.4,17.1-13.049c0-8.85-6.75-13.65-15.45-13.65c-9.75,0-15.449,8.4-15.449,16.949v25.199
		c0,8.55,5.7,16.949,15.449,16.949c8.7,0,15.45-4.799,15.45-13.648C3100.272,1975.691,3089.923,1973.291,3083.173,1973.291z"/>
	<path fill="#FFFFFF" d="M3195.82,2005.09h-0.45c-2.1,0-3.3-1.199-3.3-3.299v-21.9c0-4.199-2.4-6.6-6.6-6.6h-17.699
		c-4.2,0-6.6,2.4-6.6,6.6v21.9c0,2.1-1.2,3.299-3.3,3.299h-0.45c-2.1,0-3.3-1.199-3.3-3.299v-43.949
		c0-12.449,9-23.549,22.499-23.549s22.499,11.1,22.499,23.549v43.949C3199.12,2003.891,3197.92,2005.09,3195.82,2005.09z
		 M3192.071,1957.842c0-8.549-5.7-16.949-15.45-16.949s-15.449,8.4-15.449,16.949v3.15c0,4.199,2.4,6.6,6.6,6.6h17.699
		c4.2,0,6.6-2.4,6.6-6.6V1957.842z"/>
	<path fill="#FFFFFF" d="M3287.619,2005.09h-0.45c-2.1,0-3.3-1.199-3.3-3.299v-11.551c0-8.549-5.7-16.949-15.45-16.949
		s-15.449,8.4-15.449,16.949v11.551c0,2.1-1.2,3.299-3.3,3.299h-0.45c-2.1,0-3.3-1.199-3.3-3.299v-62.697
		c0-2.101,1.2-3.301,3.3-3.301h0.45c2.1,0,3.3,1.2,3.3,3.301v21.898c0,4.199,2.25,6.9,6.9,6.9c3.75,0,6.149-2.25,8.1-5.851
		l12.149-23.249c0.75-1.5,2.25-3,4.8-3s3.75,1.65,2.4,4.05l-11.25,20.699c-1.95,3.75-0.75,6.899,1.95,8.25
		c6,3.149,12.899,9.899,12.899,21.448v11.551C3290.919,2003.891,3289.719,2005.09,3287.619,2005.09z"/>
	<path fill="#FFFFFF" d="M3361.568,2006.59c-13.5,0-22.499-11.1-22.499-23.549v-25.199c0-12.449,9-23.549,22.499-23.549
		c9.899,0,16.349,5.7,19.049,10.949c0.9,1.65,0.45,3.601-1.05,4.65c-1.5,1.05-3.6,0.75-4.65-0.9c-2.25-3.449-5.85-8.1-13.35-8.1
		c-9.75,0-15.449,8.4-15.449,16.949v3.15c0,4.199,2.4,6.6,6.6,6.6h14.1c2.1,0,3.3,1.2,3.3,2.85c0,1.65-1.2,2.85-3.3,2.85h-14.1
		c-4.2,0-6.6,2.4-6.6,6.6v3.15c0,8.55,5.7,16.949,15.449,16.949c7.5,0,11.25-4.649,13.649-8.1c1.05-1.65,3.15-2.1,4.65-1.05
		s1.95,3,1.05,4.649C3378.218,2000.74,3371.768,2006.59,3361.568,2006.59z"/>
	<path fill="#FFFFFF" d="M3482.017,2006.59c-9.899,0-17.249-5.85-20.849-11.699c-0.9-1.5-1.05-3.449,0.6-4.65
		c1.35-1.049,3.3-0.899,4.5,0.75c3.3,4.5,8.85,9,15.749,9c11.1,0,15.45-7.799,15.45-14.999c0-12.899-15.45-13.2-15.45-13.2
		c-13.199-0.75-20.849-7.949-20.849-18.748c0-9.15,7.05-18.75,20.849-18.75c6,0,11.85,2.551,15.149,5.85c1.35,1.35,1.35,3.45,0,4.65
		c-1.35,1.199-3.15,1.199-5.1-0.301c-2.7-2.25-5.85-3.749-10.05-3.749c-11.25,0-14.099,8.249-14.099,12.3
		c0,11.249,13.949,12.299,13.949,12.299c12,0.75,22.649,6,22.649,19.649C3504.516,1997.291,3496.117,2006.59,3482.017,2006.59z"/>
	<path fill="#FFFFFF" d="M3593.015,2005.09h-0.45c-2.1,0-3.3-1.199-3.3-3.299v-21.9c0-4.199-2.4-6.6-6.6-6.6h-17.699
		c-4.2,0-6.6,2.4-6.6,6.6v21.9c0,2.1-1.2,3.299-3.3,3.299h-0.45c-2.1,0-3.3-1.199-3.3-3.299v-62.697c0-2.101,1.2-3.301,3.3-3.301
		h0.45c2.1,0,3.3,1.2,3.3,3.301v21.898c0,4.199,2.4,6.6,6.6,6.6h17.699c4.2,0,6.6-2.4,6.6-6.6v-21.898c0-2.101,1.2-3.301,3.3-3.301
		h0.45c2.1,0,3.3,1.2,3.3,3.301v62.697C3596.314,2003.891,3595.115,2005.09,3593.015,2005.09z"/>
	<path fill="#FFFFFF" d="M3665.614,2006.59c-13.499,0-22.499-11.1-22.499-23.549v-25.199c0-12.449,9-23.549,22.499-23.549
		s22.499,11.1,22.499,23.549v25.199C3688.113,1995.49,3679.113,2006.59,3665.614,2006.59z M3681.064,1957.842
		c0-8.549-5.701-16.949-15.45-16.949s-15.449,8.4-15.449,16.949v25.199c0,8.55,5.7,16.949,15.449,16.949s15.45-8.399,15.45-16.949
		V1957.842z"/>
	<path fill="#FFFFFF" d="M3757.412,1981.391c-3.299,0-6.6-0.75-9.898-2.249c-3.15-1.5-5.551,0.6-5.551,3.6v19.05
		c0,2.1-1.199,3.299-3.299,3.299h-0.451c-2.1,0-3.299-1.199-3.299-3.299v-43.949c0-12.449,8.999-23.549,22.498-23.549
		c13.5,0,22.5,11.1,22.5,23.549S3770.912,1981.391,3757.412,1981.391z M3757.412,1940.893c-9.749,0-15.449,8.4-15.449,16.949
		c0,8.551,5.7,16.949,15.449,16.949c9.75,0,15.45-8.398,15.45-16.949C3772.862,1949.293,3767.162,1940.893,3757.412,1940.893z"/>
</g>
</svg>
